<svg width="425" height="10" viewBox="0 0 425 10" fill="none" xmlns="http://www.w3.org/2000/svg">
<path d="M6.156 4.86C6.156 6.356 5.728 7.544 4.872 8.424C4.816 8.48 4.736 8.548 4.632 8.628C4.528 8.708 4.324 8.812 4.02 8.94C3.724 9.068 3.44 9.128 3.168 9.12C2.88 9.136 2.588 9.088 2.292 8.976C1.764 8.792 1.3 8.596 0.9 8.388V6.192C0.94 6.256 1.044 6.488 1.212 6.888C1.38 7.288 1.572 7.656 1.788 7.992C2.004 8.328 2.24 8.56 2.496 8.688C2.92 8.928 3.376 8.872 3.864 8.52C4.632 8 5.024 6.78 5.04 4.86V1.02L2.328 0.719999V0.599999H6.312L6.156 0.816V4.86ZM16.759 4.8C16.759 6 16.303 7.024 15.391 7.872C14.487 8.72 13.391 9.144 12.103 9.144C10.815 9.144 9.71503 8.72 8.80303 7.872C7.89903 7.024 7.44703 6 7.44703 4.8C7.44703 3.608 7.89903 2.588 8.80303 1.74C9.71503 0.892 10.815 0.468 12.103 0.468C13.383 0.468 14.479 0.892 15.391 1.74C16.303 2.588 16.759 3.608 16.759 4.8ZM14.479 7.788C15.127 6.98 15.451 5.988 15.451 4.812C15.451 3.636 15.123 2.644 14.467 1.836C13.819 1.028 13.023 0.624 12.079 0.624C11.135 0.624 10.335 1.028 9.67903 1.836C9.03103 2.644 8.70703 3.636 8.70703 4.812C8.70703 5.988 9.03103 6.98 9.67903 7.788C10.327 8.588 11.127 8.988 12.079 8.988C13.031 8.988 13.831 8.588 14.479 7.788ZM18.2039 0.599999H19.2239V9H18.2039V0.599999ZM29.3533 9H28.7773L21.5773 1.668V8.988H21.1213V1.14L20.5453 0.599999H22.2373L28.9213 7.344V0.599999H29.3533V9ZM42.2004 4.8C42.2004 6 41.7444 7.024 40.8324 7.872C39.9284 8.72 38.8324 9.144 37.5444 9.144C36.2564 9.144 35.1564 8.72 34.2444 7.872C33.3404 7.024 32.8884 6 32.8884 4.8C32.8884 3.608 33.3404 2.588 34.2444 1.74C35.1564 0.892 36.2564 0.468 37.5444 0.468C38.8244 0.468 39.9204 0.892 40.8324 1.74C41.7444 2.588 42.2004 3.608 42.2004 4.8ZM39.9204 7.788C40.5684 6.98 40.8924 5.988 40.8924 4.812C40.8924 3.636 40.5644 2.644 39.9084 1.836C39.2604 1.028 38.4644 0.624 37.5204 0.624C36.5764 0.624 35.7764 1.028 35.1204 1.836C34.4724 2.644 34.1484 3.636 34.1484 4.812C34.1484 5.988 34.4724 6.98 35.1204 7.788C35.7684 8.588 36.5684 8.988 37.5204 8.988C38.4724 8.988 39.2724 8.588 39.9204 7.788ZM51.6493 5.04C51.6493 6.2 51.2613 7.172 50.4853 7.956C49.7093 8.732 48.6973 9.124 47.4493 9.132C46.2013 9.124 45.1853 8.732 44.4013 7.956C43.6173 7.172 43.2053 6.2 43.1653 5.04V0.599999H44.3413V5.04C44.3653 6.184 44.6573 7.124 45.2173 7.86C45.7853 8.596 46.5293 8.964 47.4493 8.964C48.3693 8.964 49.1053 8.596 49.6573 7.86C50.2093 7.124 50.4853 6.184 50.4853 5.04V0.599999H51.6493V5.04ZM59.8778 2.724C59.8778 3.268 59.6298 3.74 59.1338 4.14C58.6378 4.54 58.0098 4.74 57.2498 4.74H56.5778L60.2018 9H58.8218L55.0298 4.512L56.7338 4.5C57.0698 4.5 57.3418 4.48 57.5498 4.44C57.7578 4.4 57.9498 4.324 58.1258 4.212C58.3018 4.092 58.4298 3.916 58.5098 3.684C58.5898 3.444 58.6298 3.136 58.6298 2.76C58.6298 2.064 58.4338 1.588 58.0418 1.332C57.6498 1.068 57.1178 0.931999 56.4458 0.924L54.1658 0.9V9H52.9898V0.599999H56.7458C57.6658 0.599999 58.4178 0.803999 59.0018 1.212C59.5858 1.612 59.8778 2.116 59.8778 2.724ZM64.9961 4.836C64.9961 6.004 65.3201 6.968 65.9681 7.728C66.6161 8.48 67.4481 8.856 68.4641 8.856C68.6321 8.856 68.8121 8.84 69.0041 8.808C69.1961 8.776 69.4601 8.704 69.7961 8.592C70.1401 8.48 70.5161 8.28 70.9241 7.992C71.3321 7.696 71.7281 7.332 72.1121 6.9C72.1921 6.78 72.2641 6.688 72.3281 6.624V7.104C72.0961 7.352 71.9321 7.52 71.8361 7.608C70.7081 8.632 69.5801 9.144 68.4521 9.144C67.1001 9.136 65.9681 8.716 65.0561 7.884C64.1441 7.044 63.6881 6.028 63.6881 4.836C63.6881 4.084 63.8721 3.392 64.2401 2.76C64.6081 2.128 65.1201 1.62 65.7761 1.236C65.8081 1.212 65.8521 1.184 65.9081 1.152C65.9721 1.12 66.0961 1.06 66.2801 0.972C66.4721 0.884 66.6681 0.808 66.8681 0.744C67.0681 0.672 67.3161 0.612 67.6121 0.564C67.9081 0.508 68.2001 0.48 68.4881 0.48C68.9761 0.464 69.4601 0.512 69.9401 0.624C70.1801 0.672 70.4161 0.732 70.6481 0.804C70.8801 0.876 71.0961 0.956 71.2961 1.044C71.5041 1.124 71.6361 1.172 71.6921 1.188L71.7521 3.3C71.5761 2.788 71.3721 2.36 71.1401 2.016C70.9081 1.672 70.5601 1.368 70.0961 1.104C69.1521 0.543999 68.1401 0.492 67.0601 0.948C66.4041 1.236 65.8961 1.748 65.5361 2.484C65.1761 3.22 64.9961 4.004 64.9961 4.836ZM82.2434 4.8C82.2434 6 81.7874 7.024 80.8754 7.872C79.9714 8.72 78.8754 9.144 77.5874 9.144C76.2994 9.144 75.1994 8.72 74.2874 7.872C73.3834 7.024 72.9314 6 72.9314 4.8C72.9314 3.608 73.3834 2.588 74.2874 1.74C75.1994 0.892 76.2994 0.468 77.5874 0.468C78.8674 0.468 79.9634 0.892 80.8754 1.74C81.7874 2.588 82.2434 3.608 82.2434 4.8ZM79.9634 7.788C80.6114 6.98 80.9354 5.988 80.9354 4.812C80.9354 3.636 80.6074 2.644 79.9514 1.836C79.3034 1.028 78.5074 0.624 77.5634 0.624C76.6194 0.624 75.8194 1.028 75.1634 1.836C74.5154 2.644 74.1914 3.636 74.1914 4.812C74.1914 5.988 74.5154 6.98 75.1634 7.788C75.8114 8.588 76.6114 8.988 77.5634 8.988C78.5154 8.988 79.3154 8.588 79.9634 7.788ZM83.5259 9V1.548L82.6619 0.599999H84.1619L88.8659 5.1L92.4779 0.599999H93.6659V9H92.4779L92.4659 0.983999L88.2899 6.228L83.9339 2.04V9H83.5259ZM95.7837 9V1.548L94.9197 0.599999H96.4197L101.124 5.1L104.736 0.599999H105.924V9H104.736L104.724 0.983999L100.548 6.228L96.1917 2.04V9H95.7837ZM115.974 5.04C115.974 6.2 115.586 7.172 114.81 7.956C114.034 8.732 113.022 9.124 111.774 9.132C110.526 9.124 109.51 8.732 108.726 7.956C107.942 7.172 107.53 6.2 107.49 5.04V0.599999H108.666V5.04C108.69 6.184 108.982 7.124 109.542 7.86C110.11 8.596 110.854 8.964 111.774 8.964C112.694 8.964 113.43 8.596 113.982 7.86C114.534 7.124 114.81 6.184 114.81 5.04V0.599999H115.974V5.04ZM125.822 9H125.246L118.046 1.668V8.988H117.59V1.14L117.014 0.599999H118.706L125.39 7.344V0.599999H125.822V9ZM127.434 0.599999H128.454V9H127.434V0.599999ZM134.327 1.044V9H133.163V1.032H132.515C132.011 1.032 131.523 1.128 131.051 1.32C130.579 1.512 130.243 1.684 130.043 1.836C129.851 1.988 129.683 2.14 129.539 2.292L130.079 0.599999H137.651V1.092L134.327 1.044ZM144.006 4.92V9H142.782V5.268L138.006 0.599999H139.086L143.49 4.848L147.786 0.599999H148.362L144.006 4.92ZM160.079 4.8C160.079 6 159.623 7.024 158.711 7.872C157.807 8.72 156.711 9.144 155.423 9.144C154.135 9.144 153.035 8.72 152.123 7.872C151.219 7.024 150.767 6 150.767 4.8C150.767 3.608 151.219 2.588 152.123 1.74C153.035 0.892 154.135 0.468 155.423 0.468C156.703 0.468 157.799 0.892 158.711 1.74C159.623 2.588 160.079 3.608 160.079 4.8ZM157.799 7.788C158.447 6.98 158.771 5.988 158.771 4.812C158.771 3.636 158.443 2.644 157.787 1.836C157.139 1.028 156.343 0.624 155.399 0.624C154.455 0.624 153.655 1.028 152.999 1.836C152.351 2.644 152.027 3.636 152.027 4.812C152.027 5.988 152.351 6.98 152.999 7.788C153.647 8.588 154.447 8.988 155.399 8.988C156.351 8.988 157.151 8.588 157.799 7.788ZM161.164 9V0.599999H167.812L168.352 2.04C168.224 1.904 168.056 1.764 167.848 1.62C167.64 1.468 167.3 1.308 166.828 1.14C166.364 0.964 165.88 0.875999 165.376 0.875999H162.316V4.512H167.332V4.896H162.316V9H161.164ZM172.252 9V0.599999H173.404V8.652H176.104C176.608 8.652 177.092 8.564 177.556 8.388C178.028 8.204 178.364 8.036 178.564 7.884C178.772 7.732 178.944 7.584 179.08 7.44L178.54 9H172.252ZM188.638 4.8C188.638 6 188.182 7.024 187.27 7.872C186.366 8.72 185.27 9.144 183.982 9.144C182.694 9.144 181.594 8.72 180.682 7.872C179.778 7.024 179.326 6 179.326 4.8C179.326 3.608 179.778 2.588 180.682 1.74C181.594 0.892 182.694 0.468 183.982 0.468C185.262 0.468 186.358 0.892 187.27 1.74C188.182 2.588 188.638 3.608 188.638 4.8ZM186.358 7.788C187.006 6.98 187.33 5.988 187.33 4.812C187.33 3.636 187.002 2.644 186.346 1.836C185.698 1.028 184.902 0.624 183.958 0.624C183.014 0.624 182.214 1.028 181.558 1.836C180.91 2.644 180.586 3.636 180.586 4.812C180.586 5.988 180.91 6.98 181.558 7.788C182.206 8.588 183.006 8.988 183.958 8.988C184.91 8.988 185.71 8.588 186.358 7.788ZM190.785 4.836C190.785 6.004 191.109 6.968 191.757 7.728C192.405 8.48 193.237 8.856 194.253 8.856C194.421 8.856 194.601 8.84 194.793 8.808C194.985 8.776 195.249 8.704 195.585 8.592C195.929 8.48 196.305 8.28 196.713 7.992C197.121 7.696 197.517 7.332 197.901 6.9C197.981 6.78 198.053 6.688 198.117 6.624V7.104C197.885 7.352 197.721 7.52 197.625 7.608C196.497 8.632 195.369 9.144 194.241 9.144C192.889 9.136 191.757 8.716 190.845 7.884C189.933 7.044 189.477 6.028 189.477 4.836C189.477 4.084 189.661 3.392 190.029 2.76C190.397 2.128 190.909 1.62 191.565 1.236C191.597 1.212 191.641 1.184 191.697 1.152C191.761 1.12 191.885 1.06 192.069 0.972C192.261 0.884 192.457 0.808 192.657 0.744C192.857 0.672 193.105 0.612 193.401 0.564C193.697 0.508 193.989 0.48 194.277 0.48C194.765 0.464 195.249 0.512 195.729 0.624C195.969 0.672 196.205 0.732 196.437 0.804C196.669 0.876 196.885 0.956 197.085 1.044C197.293 1.124 197.425 1.172 197.481 1.188L197.541 3.3C197.365 2.788 197.161 2.36 196.929 2.016C196.697 1.672 196.349 1.368 195.885 1.104C194.941 0.543999 193.929 0.492 192.849 0.948C192.193 1.236 191.685 1.748 191.325 2.484C190.965 3.22 190.785 4.004 190.785 4.836ZM206.601 8.988L205.161 6.432H199.965L198.489 9H197.997L202.437 1.296L201.645 0.599999H203.169L208.053 8.988H206.601ZM202.593 1.896L200.193 6.048H204.945L202.593 1.896ZM208.685 9V0.599999H209.837V8.652H212.537C213.041 8.652 213.525 8.564 213.989 8.388C214.461 8.204 214.797 8.036 214.997 7.884C215.205 7.732 215.377 7.584 215.513 7.44L214.973 9H208.685ZM227.004 8.988L225.564 6.432H220.368L218.892 9H218.4L222.84 1.296L222.048 0.599999H223.572L228.456 8.988H227.004ZM222.996 1.896L220.596 6.048H225.348L222.996 1.896ZM236.093 2.724C236.093 3.268 235.845 3.74 235.349 4.14C234.853 4.54 234.225 4.74 233.465 4.74H232.793L236.417 9H235.037L231.245 4.512L232.949 4.5C233.285 4.5 233.557 4.48 233.765 4.44C233.973 4.4 234.165 4.324 234.341 4.212C234.517 4.092 234.645 3.916 234.725 3.684C234.805 3.444 234.845 3.136 234.845 2.76C234.845 2.064 234.649 1.588 234.257 1.332C233.865 1.068 233.333 0.931999 232.661 0.924L230.381 0.9V9H229.205V0.599999H232.961C233.881 0.599999 234.633 0.803999 235.217 1.212C235.801 1.612 236.093 2.116 236.093 2.724ZM241.565 1.044V9H240.401V1.032H239.753C239.249 1.032 238.761 1.128 238.289 1.32C237.817 1.512 237.481 1.684 237.281 1.836C237.089 1.988 236.921 2.14 236.777 2.292L237.317 0.599999H244.889V1.092L241.565 1.044ZM246.087 0.599999H247.107V9H246.087V0.599999ZM248.617 2.616C248.657 2.016 249.025 1.484 249.721 1.02C250.417 0.548 251.201 0.332 252.073 0.372C253.441 0.436 254.429 0.708 255.037 1.188V3.264C254.725 2.288 254.341 1.608 253.885 1.224C253.437 0.832 252.781 0.624 251.917 0.599999C251.005 0.567999 250.317 0.779999 249.853 1.236C249.413 1.668 249.337 2.164 249.625 2.724C250.049 3.548 251.129 4.24 252.865 4.8C253.033 4.856 253.205 4.92 253.381 4.992C253.557 5.056 253.777 5.16 254.041 5.304C254.305 5.44 254.541 5.588 254.749 5.748C254.957 5.9 255.149 6.096 255.325 6.336C255.501 6.576 255.621 6.828 255.685 7.092C255.749 7.348 255.737 7.652 255.649 8.004C255.569 8.348 255.401 8.708 255.145 9.084C255.137 8.828 255.113 8.596 255.073 8.388C255.033 8.18 254.969 7.988 254.881 7.812C254.793 7.636 254.701 7.484 254.605 7.356C254.517 7.22 254.389 7.088 254.221 6.96C254.061 6.832 253.909 6.724 253.765 6.636C253.629 6.548 253.441 6.448 253.201 6.336C252.961 6.224 252.749 6.132 252.565 6.06C252.381 5.988 252.137 5.892 251.833 5.772C251.753 5.74 251.689 5.716 251.641 5.7C251.601 5.684 251.545 5.664 251.473 5.64C251.401 5.608 251.337 5.58 251.281 5.556C250.377 5.204 249.693 4.808 249.229 4.368C248.773 3.92 248.569 3.336 248.617 2.616ZM249.397 8.544V6.6C249.589 7.368 249.905 7.988 250.345 8.46V8.976C249.985 8.864 249.669 8.72 249.397 8.544ZM260.526 1.044V9H259.362V1.032H258.714C258.21 1.032 257.722 1.128 257.25 1.32C256.778 1.512 256.442 1.684 256.242 1.836C256.05 1.988 255.882 2.14 255.738 2.292L256.278 0.599999H263.85V1.092L260.526 1.044ZM264.039 2.616C264.079 2.016 264.447 1.484 265.143 1.02C265.839 0.548 266.623 0.332 267.495 0.372C268.863 0.436 269.851 0.708 270.459 1.188V3.264C270.147 2.288 269.763 1.608 269.307 1.224C268.859 0.832 268.203 0.624 267.339 0.599999C266.427 0.567999 265.739 0.779999 265.275 1.236C264.835 1.668 264.759 2.164 265.047 2.724C265.471 3.548 266.551 4.24 268.287 4.8C268.455 4.856 268.627 4.92 268.803 4.992C268.979 5.056 269.199 5.16 269.463 5.304C269.727 5.44 269.963 5.588 270.171 5.748C270.379 5.9 270.571 6.096 270.747 6.336C270.923 6.576 271.043 6.828 271.107 7.092C271.171 7.348 271.159 7.652 271.071 8.004C270.991 8.348 270.823 8.708 270.567 9.084C270.559 8.828 270.535 8.596 270.495 8.388C270.455 8.18 270.391 7.988 270.303 7.812C270.215 7.636 270.123 7.484 270.027 7.356C269.939 7.22 269.811 7.088 269.643 6.96C269.483 6.832 269.331 6.724 269.187 6.636C269.051 6.548 268.863 6.448 268.623 6.336C268.383 6.224 268.171 6.132 267.987 6.06C267.803 5.988 267.559 5.892 267.255 5.772C267.175 5.74 267.111 5.716 267.063 5.7C267.023 5.684 266.967 5.664 266.895 5.64C266.823 5.608 266.759 5.58 266.703 5.556C265.799 5.204 265.115 4.808 264.651 4.368C264.195 3.92 263.991 3.336 264.039 2.616ZM264.819 8.544V6.6C265.011 7.368 265.327 7.988 265.767 8.46V8.976C265.407 8.864 265.091 8.72 264.819 8.544ZM282.527 8.988L281.087 6.432H275.891L274.415 9H273.923L278.363 1.296L277.571 0.599999H279.095L283.979 8.988H282.527ZM278.519 1.896L276.119 6.048H280.871L278.519 1.896ZM292.885 9H292.309L285.109 1.668V8.988H284.653V1.14L284.077 0.599999H285.769L292.453 7.344V0.599999H292.885V9ZM302.844 4.8C302.844 5.952 302.416 6.94 301.56 7.764C300.704 8.588 299.672 9 298.464 9H294.54V0.599999H298.368C299.6 0.599999 300.652 1.012 301.524 1.836C302.404 2.652 302.844 3.64 302.844 4.8ZM301.692 4.812C301.692 3.596 301.264 2.624 300.408 1.896C299.56 1.16 298.256 0.792 296.496 0.792H295.704V8.652H298.452C299.372 8.652 300.14 8.292 300.756 7.572C301.38 6.852 301.692 5.932 301.692 4.812ZM310.577 1.044V9H309.413V1.032H308.765C308.261 1.032 307.773 1.128 307.301 1.32C306.829 1.512 306.493 1.684 306.293 1.836C306.101 1.988 305.933 2.14 305.789 2.292L306.329 0.599999H313.901V1.092L310.577 1.044ZM322.608 9H321.516V4.932H316.008L315.996 9H314.916V0.599999H316.008V4.464H321.516V0.599999H322.608V9ZM324.348 9V0.599999H330.996L331.536 2.04C331.408 1.904 331.24 1.764 331.032 1.62C330.824 1.468 330.484 1.308 330.012 1.14C329.548 0.964 329.064 0.875999 328.56 0.875999H325.5V4.512H330.516V4.896H325.5V8.652H328.56C329.28 8.652 329.9 8.528 330.42 8.28C330.948 8.024 331.32 7.784 331.536 7.56L330.996 9H324.348ZM333.333 0.599999H334.353V9H333.333V0.599999ZM342.979 2.724C342.979 3.268 342.731 3.74 342.235 4.14C341.739 4.54 341.111 4.74 340.351 4.74H339.679L343.303 9H341.923L338.131 4.512L339.835 4.5C340.171 4.5 340.443 4.48 340.651 4.44C340.859 4.4 341.051 4.324 341.227 4.212C341.403 4.092 341.531 3.916 341.611 3.684C341.691 3.444 341.731 3.136 341.731 2.76C341.731 2.064 341.535 1.588 341.143 1.332C340.751 1.068 340.219 0.931999 339.547 0.924L337.267 0.9V9H336.091V0.599999H339.847C340.767 0.599999 341.519 0.803999 342.103 1.212C342.687 1.612 342.979 2.116 342.979 2.724ZM354.914 8.988L353.474 6.432H348.278L346.802 9H346.31L350.75 1.296L349.958 0.599999H351.482L356.366 8.988H354.914ZM350.906 1.896L348.506 6.048H353.258L350.906 1.896ZM364.003 2.724C364.003 3.268 363.755 3.74 363.259 4.14C362.763 4.54 362.135 4.74 361.375 4.74H360.703L364.327 9H362.947L359.155 4.512L360.859 4.5C361.195 4.5 361.467 4.48 361.675 4.44C361.883 4.4 362.075 4.324 362.251 4.212C362.427 4.092 362.555 3.916 362.635 3.684C362.715 3.444 362.755 3.136 362.755 2.76C362.755 2.064 362.559 1.588 362.167 1.332C361.775 1.068 361.243 0.931999 360.571 0.924L358.291 0.9V9H357.115V0.599999H360.871C361.791 0.599999 362.543 0.803999 363.127 1.212C363.711 1.612 364.003 2.116 364.003 2.724ZM369.476 1.044V9H368.312V1.032H367.664C367.16 1.032 366.672 1.128 366.2 1.32C365.728 1.512 365.392 1.684 365.192 1.836C365 1.988 364.832 2.14 364.688 2.292L365.228 0.599999H372.8V1.092L369.476 1.044ZM387.911 0.599999L383.903 9H382.955L380.243 3.3L377.555 9H376.571L372.562 0.599999H373.931L377.423 8.148L380.003 2.808L378.947 0.599999H380.255L383.747 7.92L387.443 0.599999H387.911ZM397.103 4.8C397.103 6 396.647 7.024 395.735 7.872C394.831 8.72 393.735 9.144 392.447 9.144C391.159 9.144 390.059 8.72 389.147 7.872C388.243 7.024 387.791 6 387.791 4.8C387.791 3.608 388.243 2.588 389.147 1.74C390.059 0.892 391.159 0.468 392.447 0.468C393.727 0.468 394.823 0.892 395.735 1.74C396.647 2.588 397.103 3.608 397.103 4.8ZM394.823 7.788C395.471 6.98 395.795 5.988 395.795 4.812C395.795 3.636 395.467 2.644 394.811 1.836C394.163 1.028 393.367 0.624 392.423 0.624C391.479 0.624 390.679 1.028 390.023 1.836C389.375 2.644 389.051 3.636 389.051 4.812C389.051 5.988 389.375 6.98 390.023 7.788C390.671 8.588 391.471 8.988 392.423 8.988C393.375 8.988 394.175 8.588 394.823 7.788ZM405.018 2.724C405.018 3.268 404.77 3.74 404.274 4.14C403.778 4.54 403.15 4.74 402.39 4.74H401.718L405.342 9H403.962L400.17 4.512L401.874 4.5C402.21 4.5 402.482 4.48 402.69 4.44C402.898 4.4 403.09 4.324 403.266 4.212C403.442 4.092 403.57 3.916 403.65 3.684C403.73 3.444 403.77 3.136 403.77 2.76C403.77 2.064 403.574 1.588 403.182 1.332C402.79 1.068 402.258 0.931999 401.586 0.924L399.306 0.9V9H398.13V0.599999H401.886C402.806 0.599999 403.558 0.803999 404.142 1.212C404.726 1.612 405.018 2.116 405.018 2.724ZM408.79 4.116L414.826 9.024L413.242 9L408.094 4.74V9H406.966V0.611999H408.094V3.948L413.83 0.599999H414.73L408.79 4.116ZM414.813 2.616C414.853 2.016 415.221 1.484 415.917 1.02C416.613 0.548 417.397 0.332 418.269 0.372C419.637 0.436 420.625 0.708 421.233 1.188V3.264C420.921 2.288 420.537 1.608 420.081 1.224C419.633 0.832 418.977 0.624 418.113 0.599999C417.201 0.567999 416.513 0.779999 416.049 1.236C415.609 1.668 415.533 2.164 415.821 2.724C416.245 3.548 417.325 4.24 419.061 4.8C419.229 4.856 419.401 4.92 419.577 4.992C419.753 5.056 419.973 5.16 420.237 5.304C420.501 5.44 420.737 5.588 420.945 5.748C421.153 5.9 421.345 6.096 421.521 6.336C421.697 6.576 421.817 6.828 421.881 7.092C421.945 7.348 421.933 7.652 421.845 8.004C421.765 8.348 421.597 8.708 421.341 9.084C421.333 8.828 421.309 8.596 421.269 8.388C421.229 8.18 421.165 7.988 421.077 7.812C420.989 7.636 420.897 7.484 420.801 7.356C420.713 7.22 420.585 7.088 420.417 6.96C420.257 6.832 420.105 6.724 419.961 6.636C419.825 6.548 419.637 6.448 419.397 6.336C419.157 6.224 418.945 6.132 418.761 6.06C418.577 5.988 418.333 5.892 418.029 5.772C417.949 5.74 417.885 5.716 417.837 5.7C417.797 5.684 417.741 5.664 417.669 5.64C417.597 5.608 417.533 5.58 417.477 5.556C416.573 5.204 415.889 4.808 415.425 4.368C414.969 3.92 414.765 3.336 414.813 2.616ZM415.593 8.544V6.6C415.785 7.368 416.101 7.988 416.541 8.46V8.976C416.181 8.864 415.865 8.72 415.593 8.544ZM423.686 9.144C423.502 9.144 423.342 9.08 423.206 8.952C423.078 8.816 423.014 8.656 423.014 8.472C423.014 8.304 423.078 8.156 423.206 8.028C423.342 7.892 423.502 7.824 423.686 7.824C423.854 7.824 424.002 7.892 424.13 8.028C424.266 8.156 424.334 8.304 424.334 8.472C424.334 8.656 424.266 8.816 424.13 8.952C424.002 9.08 423.854 9.144 423.686 9.144Z" fill="black"/>
</svg>
