<svg width="86" height="54" viewBox="0 0 86 54" fill="none" xmlns="http://www.w3.org/2000/svg">
<path d="M17.968 21.976L15.088 16.864H4.696L1.744 22H0.76L9.64 6.592L8.056 5.2H11.104L20.872 21.976H17.968ZM9.952 7.792L5.152 16.096H14.656L9.952 7.792ZM36.6246 9.472C36.6246 10.56 36.1446 11.52 35.1846 12.352C34.2406 13.184 33.0646 13.608 31.6566 13.624H28.5846C28.6966 14.552 29.0326 15.344 29.5926 16C30.1526 16.64 30.8646 17.056 31.7286 17.248L33.0486 17.536C34.6326 17.888 35.7766 18.44 36.4806 19.192C37.2006 19.944 37.5686 20.88 37.5846 22H37.0806C36.8086 21.472 36.1846 21.104 35.2086 20.896L33.2886 20.464C31.9766 20.176 30.6886 19.368 29.4246 18.04C28.1766 16.696 27.4646 15.192 27.2886 13.528V13.048L30.6006 13.024C31.8966 13.024 32.7766 12.816 33.2406 12.4C33.7046 11.968 33.9366 11.016 33.9366 9.544C33.9366 8.12 33.6086 7.16 32.9526 6.664C32.3126 6.168 31.3366 5.92 30.0246 5.92L24.8886 5.944V22H22.4406V5.2H30.6246C32.4486 5.2 33.9046 5.608 34.9926 6.424C36.0806 7.224 36.6246 8.24 36.6246 9.472ZM52.8454 6.136H46.4614V22H44.1334V6.136H37.7734V5.2H52.8454V6.136ZM2.344 36.52C2.424 35.16 3.152 34.016 4.528 33.088C5.904 32.144 7.48 31.728 9.256 31.84C11.704 31.984 13.52 32.52 14.704 33.448V37.216C14.192 35.712 13.592 34.512 12.904 33.616C12.552 33.2 12.04 32.88 11.368 32.656C10.712 32.416 10.144 32.28 9.664 32.248L8.944 32.2C7.152 32.152 5.784 32.584 4.84 33.496C3.96 34.36 3.784 35.352 4.312 36.472C5.064 38.088 7.048 39.416 10.264 40.456L10.84 40.648C11.24 40.76 11.656 40.912 12.088 41.104C12.52 41.28 13.048 41.536 13.672 41.872C14.296 42.192 14.816 42.584 15.232 43.048C15.664 43.512 16.016 44.032 16.288 44.608C16.576 45.184 16.648 45.872 16.504 46.672C16.376 47.456 16.008 48.288 15.4 49.168C15.368 48.288 15.232 47.512 14.992 46.84C14.752 46.168 14.448 45.608 14.08 45.16C13.712 44.696 13.176 44.264 12.472 43.864C11.784 43.448 11.096 43.104 10.408 42.832C9.72 42.56 8.808 42.232 7.672 41.848C5.832 41.24 4.456 40.544 3.544 39.76C2.648 38.96 2.248 37.88 2.344 36.52ZM3.904 48.088V44.176C4.288 45.712 4.92 46.96 5.8 47.92V48.952C5.08 48.728 4.448 48.44 3.904 48.088ZM34.1939 36.448C34.1939 37.52 33.7219 38.44 32.7779 39.208C31.8339 39.96 30.6499 40.384 29.2259 40.48L22.0979 40.504V49H19.7219V32.2H28.1939C30.0179 32.2 31.4739 32.6 32.5619 33.4C33.6499 34.2 34.1939 35.216 34.1939 36.448ZM31.5059 36.52C31.5059 35.128 31.1939 34.224 30.5699 33.808C29.9459 33.392 28.9539 33.184 27.5939 33.184H22.0979V40.024H28.1699C29.4659 40.024 30.3459 39.808 30.8099 39.376C31.2739 38.944 31.5059 37.992 31.5059 36.52ZM48.9289 48.976L46.0489 43.864H35.6569L32.7049 49H31.7209L40.6009 33.592L39.0169 32.2H42.0649L51.8329 48.976H48.9289ZM40.9129 34.792L36.1129 43.096H45.6169L40.9129 34.792ZM54.0001 40.672C54.0001 43.008 54.6481 44.936 55.9441 46.456C57.2401 47.96 58.9041 48.712 60.9361 48.712C61.2721 48.712 61.6321 48.68 62.0161 48.616C62.4001 48.552 62.9281 48.408 63.6001 48.184C64.2881 47.96 65.0401 47.56 65.8561 46.984C66.6721 46.392 67.4641 45.664 68.2321 44.8C68.3921 44.56 68.5361 44.376 68.6641 44.248V45.208C68.2001 45.704 67.8721 46.04 67.6801 46.216C65.4241 48.264 63.1681 49.288 60.9121 49.288C58.2081 49.272 55.9441 48.432 54.1201 46.768C52.2961 45.088 51.3841 43.056 51.3841 40.672C51.3841 39.168 51.7521 37.784 52.4881 36.52C53.2241 35.256 54.2481 34.24 55.5601 33.472C55.6241 33.424 55.7121 33.368 55.8241 33.304C55.9521 33.24 56.2001 33.12 56.5681 32.944C56.9521 32.768 57.3441 32.616 57.7441 32.488C58.1441 32.344 58.6401 32.224 59.2321 32.128C59.8241 32.016 60.4081 31.96 60.9841 31.96C61.9601 31.928 62.9281 32.024 63.8881 32.248C64.3681 32.344 64.8401 32.464 65.3041 32.608C65.7681 32.752 66.2001 32.912 66.6001 33.088C67.0161 33.248 67.2801 33.344 67.3921 33.376L67.5121 37.6C67.1601 36.576 66.7521 35.72 66.2881 35.032C65.8241 34.344 65.1281 33.736 64.2001 33.208C62.3121 32.088 60.2881 31.984 58.1281 32.896C56.8161 33.472 55.8001 34.496 55.0801 35.968C54.3601 37.44 54.0001 39.008 54.0001 40.672ZM84.2706 33.136H73.3746V39.928H83.4066V40.864H73.3746V48.064H84.2706V49H71.0706V32.2H84.2706V33.136Z" fill="white" fill-opacity="0.2"/>
<path d="M7.51 28.528L5.872 28.57C5.04133 28.57 4.206 28.556 3.366 28.528L3.128 29.116C2.792 29.9467 2.624 30.642 2.624 31.202C2.624 31.6593 2.88533 31.888 3.408 31.888C3.44533 31.888 3.51533 31.8833 3.618 31.874C3.72067 31.8553 3.78133 31.846 3.8 31.846C3.86533 31.846 3.898 31.8693 3.898 31.916C3.898 31.972 3.842 32 3.73 32C3.646 32 3.37533 31.9953 2.918 31.986C2.47 31.9767 2.20867 31.972 2.134 31.972C2.08733 31.972 1.91467 31.9767 1.616 31.986C1.31733 31.9953 1.10267 32 0.972 32C0.916 32 0.888 31.9767 0.888 31.93C0.888 31.8927 0.916 31.874 0.972 31.874H1.028C1.40133 31.874 1.73733 31.594 2.036 31.034C2.36267 30.4833 2.67067 29.8207 2.96 29.046L5.662 22.298C5.67133 22.27 5.704 22.256 5.76 22.256H5.9C5.97467 22.256 6.02133 22.27 6.04 22.298L8.588 28.374C9.064 29.494 9.42333 30.292 9.666 30.768C9.90867 31.2347 10.1047 31.538 10.254 31.678C10.4127 31.8087 10.6133 31.874 10.856 31.874H10.968C11.0333 31.874 11.066 31.8927 11.066 31.93C11.066 31.9767 11.038 32 10.982 32C10.8327 32 10.5713 31.9953 10.198 31.986C9.834 31.9673 9.624 31.958 9.568 31.958C9.512 31.958 9.25067 31.9673 8.784 31.986C8.32667 31.9953 8.02333 32 7.874 32C7.80867 32 7.77133 31.9767 7.762 31.93C7.78067 31.902 7.804 31.8833 7.832 31.874H8.126C8.38733 31.874 8.52733 31.7853 8.546 31.608C8.59267 31.2813 8.24733 30.2547 7.51 28.528ZM7.44 28.374L5.354 23.488L3.408 28.402L5.788 28.388H7.44V28.374ZM12.8011 31.972C12.7265 31.972 12.4558 31.9767 11.9891 31.986C11.5318 31.9953 11.2891 32 11.2611 32C11.2051 32 11.1771 31.9813 11.1771 31.944C11.1771 31.8973 11.2051 31.874 11.2611 31.874C11.5785 31.874 11.7931 31.8647 11.9051 31.846C12.0638 31.6873 12.1571 31.2673 12.1851 30.586C12.2131 29.8113 12.2271 28.878 12.2271 27.786V25.924C12.2271 25 12.2225 24.328 12.2131 23.908C12.2038 23.488 12.1665 23.152 12.1011 22.9C12.0358 22.648 11.9611 22.508 11.8771 22.48C11.8025 22.4427 11.6671 22.424 11.4711 22.424H11.2191C11.1631 22.424 11.1351 22.4053 11.1351 22.368C11.1351 22.3213 11.1631 22.298 11.2191 22.298C11.3685 22.298 11.6485 22.3073 12.0591 22.326C12.4791 22.3353 12.7171 22.34 12.7731 22.34C12.8385 22.34 13.1185 22.3353 13.6131 22.326C14.1171 22.3073 14.4111 22.298 14.4951 22.298C16.8845 22.298 18.0791 23.0633 18.0791 24.594C18.0791 25.154 17.7851 25.6393 17.1971 26.05C16.6185 26.4513 15.9185 26.722 15.0971 26.862C15.6945 26.8807 16.1611 27.0393 16.4971 27.338C16.8331 27.6367 17.2298 28.2433 17.6871 29.158C18.2565 30.3713 18.6671 31.1273 18.9191 31.426C19.1805 31.7247 19.5305 31.874 19.9691 31.874H20.0671C20.1045 31.874 20.1325 31.888 20.1511 31.916C20.1698 31.9347 20.1698 31.9533 20.1511 31.972C20.1418 31.9907 20.1138 32 20.0671 32H19.5631C19.3765 32 19.1805 32.0093 18.9751 32.028C18.7698 32.0467 18.6438 32.056 18.5971 32.056C18.3171 32.056 18.0791 31.944 17.8831 31.72C17.5378 31.328 17.1505 30.6233 16.7211 29.606C16.5065 29.1113 16.3151 28.71 16.1471 28.402C15.9791 28.094 15.8205 27.842 15.6711 27.646C15.5218 27.4407 15.3538 27.296 15.1671 27.212C14.9805 27.1187 14.7938 27.058 14.6071 27.03C14.4205 26.9927 14.1731 26.9693 13.8651 26.96H13.2911V28.374C13.2911 29.298 13.2958 29.97 13.3051 30.39C13.3145 30.81 13.3518 31.146 13.4171 31.398C13.4825 31.65 13.5525 31.7947 13.6271 31.832C13.7111 31.86 13.8511 31.874 14.0471 31.874H14.3271C14.3831 31.874 14.4111 31.8973 14.4111 31.944C14.4111 31.9813 14.3831 32 14.3271 32C14.1778 32 13.8978 31.9953 13.4871 31.986C13.0765 31.9767 12.8478 31.972 12.8011 31.972ZM13.2911 24.538V26.82C13.4685 26.8107 13.8605 26.806 14.4671 26.806C15.0831 26.806 15.6291 26.6193 16.1051 26.246C16.5905 25.8727 16.8331 25.322 16.8331 24.594C16.8331 23.8567 16.6371 23.3107 16.2451 22.956C15.8625 22.6013 15.2418 22.424 14.3831 22.424H13.8371C13.5758 22.424 13.4171 22.522 13.3611 22.718C13.3145 22.914 13.2911 23.5207 13.2911 24.538ZM24.3903 22.284V28.374C24.3903 29.298 24.3949 29.97 24.4043 30.39C24.4136 30.81 24.4509 31.146 24.5163 31.398C24.5816 31.65 24.6516 31.7947 24.7263 31.832C24.8103 31.86 24.9503 31.874 25.1463 31.874H25.3983C25.4543 31.874 25.4823 31.8973 25.4823 31.944C25.4823 31.9813 25.4543 32 25.3983 32C25.2489 32 24.9643 31.9953 24.5443 31.986C24.1336 31.9673 23.9049 31.958 23.8583 31.958C23.8023 31.958 23.5643 31.9673 23.1443 31.986C22.7336 31.9953 22.4536 32 22.3043 32C22.2483 32 22.2203 31.9813 22.2203 31.944C22.2203 31.8973 22.2483 31.874 22.3043 31.874H22.5563C22.7523 31.874 22.8876 31.86 22.9623 31.832C23.0463 31.7947 23.1209 31.65 23.1863 31.398C23.2516 31.146 23.2889 30.81 23.2983 30.39C23.3076 29.97 23.3123 29.298 23.3123 28.374V22.284C23.0509 22.2933 22.6683 22.298 22.1643 22.298C21.4549 22.298 20.9276 22.5313 20.5823 22.998C20.2463 23.4647 20.0036 24.1833 19.8543 25.154L19.7423 25.952C19.7236 26.008 19.6863 26.0313 19.6303 26.022C19.6023 26.0127 19.5929 25.9893 19.6023 25.952L19.7143 25.154C19.7703 24.7247 19.8029 24.2673 19.8123 23.782C19.8309 23.2873 19.8403 22.914 19.8403 22.662C19.8403 22.4007 19.8496 22.2653 19.8683 22.256C19.9989 22.1907 20.5683 22.158 21.5763 22.158C21.6696 22.158 22.0149 22.1627 22.6123 22.172C23.2096 22.1813 23.6203 22.186 23.8443 22.186C23.9843 22.186 24.2596 22.1813 24.6703 22.172C25.0809 22.1627 25.5569 22.158 26.0983 22.158H26.1123C27.1203 22.158 27.6896 22.1907 27.8203 22.256C27.8389 22.2653 27.8483 22.4007 27.8483 22.662C27.8483 22.914 27.8576 23.2873 27.8763 23.782C27.8949 24.2673 27.9323 24.7247 27.9883 25.154L28.0863 25.952C28.0956 25.9893 28.0863 26.0127 28.0583 26.022C28.0116 26.022 27.9789 25.9987 27.9603 25.952L27.8343 25.154C27.6849 24.1833 27.4376 23.4647 27.0923 22.998C26.7563 22.5313 26.2289 22.2933 25.5103 22.284H24.3903ZM32.5362 22.158C33.5069 22.158 34.5242 22.2793 35.5882 22.522C35.6815 22.55 35.7329 22.6013 35.7422 22.676C35.7515 22.7413 35.7469 22.9 35.7282 23.152C35.7189 23.3947 35.7049 23.7867 35.6862 24.328C35.6675 24.8693 35.6582 25.4573 35.6582 26.092C35.6582 26.148 35.6442 26.19 35.6162 26.218C35.5975 26.2367 35.5742 26.2367 35.5462 26.218C35.5275 26.19 35.5182 26.148 35.5182 26.092C35.5275 25.4947 35.4949 24.9907 35.4202 24.58C35.3549 24.16 35.2195 23.768 35.0142 23.404C34.8182 23.0307 34.5149 22.7553 34.1042 22.578C33.6935 22.3913 33.1709 22.298 32.5362 22.298C31.7242 22.298 31.1222 22.466 30.7302 22.802C30.3382 23.138 30.1422 23.5907 30.1422 24.16C30.1422 24.3467 30.1749 24.5287 30.2402 24.706C30.3055 24.874 30.3755 25.0187 30.4502 25.14C30.5249 25.2613 30.6555 25.392 30.8422 25.532C31.0289 25.672 31.1735 25.7793 31.2762 25.854C31.3789 25.9287 31.5655 26.0313 31.8362 26.162C32.1162 26.2927 32.3029 26.3813 32.3962 26.428C32.4989 26.4653 32.7089 26.554 33.0262 26.694C33.3995 26.8433 33.6935 26.9693 33.9082 27.072C34.1229 27.1747 34.3749 27.3147 34.6642 27.492C34.9629 27.66 35.1915 27.8327 35.3502 28.01C35.5089 28.178 35.6489 28.388 35.7702 28.64C35.8915 28.892 35.9522 29.1627 35.9522 29.452C35.9522 30.2453 35.6582 30.894 35.0702 31.398C34.4822 31.8927 33.7589 32.14 32.9002 32.14C31.7709 32.14 30.6835 32 29.6382 31.72C29.5449 31.7013 29.4982 31.6547 29.4982 31.58C29.4982 31.3653 29.4935 30.7727 29.4842 29.802C29.4842 28.8313 29.4842 28.2293 29.4842 27.996C29.4842 27.9307 29.4935 27.8887 29.5122 27.87C29.5402 27.842 29.5682 27.842 29.5962 27.87C29.6242 27.8887 29.6382 27.9307 29.6382 27.996C29.6382 29.3307 29.8949 30.334 30.4082 31.006C30.9309 31.6687 31.7615 32 32.9002 32C33.6375 32 34.1882 31.832 34.5522 31.496C34.9255 31.1507 35.1122 30.6887 35.1122 30.11C35.1122 29.886 35.0795 29.6807 35.0142 29.494C34.9489 29.3073 34.8369 29.1347 34.6782 28.976C34.5195 28.808 34.3749 28.6727 34.2442 28.57C34.1229 28.458 33.9175 28.332 33.6282 28.192C33.3482 28.052 33.1382 27.9493 32.9982 27.884C32.8675 27.8187 32.6295 27.716 32.2842 27.576C31.9015 27.4173 31.5982 27.2913 31.3742 27.198C31.1595 27.0953 30.8982 26.9553 30.5902 26.778C30.2822 26.5913 30.0442 26.414 29.8762 26.246C29.7175 26.078 29.5729 25.8727 29.4422 25.63C29.3209 25.378 29.2602 25.1073 29.2602 24.818C29.2602 24.006 29.5729 23.362 30.1982 22.886C30.8329 22.4007 31.6122 22.158 32.5362 22.158ZM38.5219 31.972C38.4472 31.972 38.1485 31.9767 37.6259 31.986C37.1125 31.9953 36.8419 32 36.8139 32C36.7579 32 36.7299 31.9813 36.7299 31.944C36.7299 31.8973 36.7579 31.874 36.8139 31.874C36.9632 31.874 37.1779 31.8647 37.4579 31.846C37.6165 31.6873 37.7099 31.2673 37.7379 30.586C37.7659 29.8113 37.7799 28.878 37.7799 27.786V25.924C37.7799 25 37.7752 24.328 37.7659 23.908C37.7565 23.488 37.7192 23.152 37.6539 22.9C37.5885 22.648 37.5139 22.508 37.4299 22.48C37.3552 22.4427 37.2199 22.424 37.0239 22.424H36.7719C36.7159 22.424 36.6879 22.4053 36.6879 22.368C36.6879 22.3213 36.7159 22.298 36.7719 22.298C36.9212 22.298 37.2012 22.3073 37.6119 22.326C38.0319 22.3353 38.2699 22.34 38.3259 22.34C38.3819 22.34 38.7925 22.3353 39.5579 22.326C40.3232 22.3073 40.7479 22.298 40.8319 22.298C41.9799 22.298 42.8805 22.5313 43.5339 22.998C44.1965 23.4647 44.5279 24.1273 44.5279 24.986C44.5279 25.8447 44.1919 26.54 43.5199 27.072C42.8479 27.604 41.9799 27.87 40.9159 27.87C40.4492 27.8607 39.7585 27.856 38.8439 27.856V28.36C38.8439 29.4893 38.8672 30.306 38.9139 30.81C38.9605 31.314 39.0212 31.6173 39.0959 31.72C39.1799 31.8227 39.3152 31.874 39.5019 31.874H40.2159C40.2719 31.874 40.2999 31.8973 40.2999 31.944C40.2999 31.9813 40.2719 32 40.2159 32C40.0665 32 39.7585 31.9953 39.2919 31.986C38.8345 31.9767 38.5779 31.972 38.5219 31.972ZM38.8439 24.538V27.716H40.6079C41.4665 27.716 42.1339 27.4733 42.6099 26.988C43.0859 26.4933 43.3239 25.8213 43.3239 24.972C43.3239 23.2827 42.4232 22.438 40.6219 22.438H39.3899C39.1285 22.438 38.9699 22.536 38.9139 22.732C38.8672 22.9187 38.8439 23.5207 38.8439 24.538ZM50.2756 28.528L48.6376 28.57C47.807 28.57 46.9716 28.556 46.1316 28.528L45.8936 29.116C45.5576 29.9467 45.3896 30.642 45.3896 31.202C45.3896 31.6593 45.651 31.888 46.1736 31.888C46.211 31.888 46.281 31.8833 46.3836 31.874C46.4863 31.8553 46.547 31.846 46.5656 31.846C46.631 31.846 46.6636 31.8693 46.6636 31.916C46.6636 31.972 46.6076 32 46.4956 32C46.4116 32 46.141 31.9953 45.6836 31.986C45.2356 31.9767 44.9743 31.972 44.8996 31.972C44.853 31.972 44.6803 31.9767 44.3816 31.986C44.083 31.9953 43.8683 32 43.7376 32C43.6816 32 43.6536 31.9767 43.6536 31.93C43.6536 31.8927 43.6816 31.874 43.7376 31.874H43.7936C44.167 31.874 44.503 31.594 44.8016 31.034C45.1283 30.4833 45.4363 29.8207 45.7256 29.046L48.4276 22.298C48.437 22.27 48.4696 22.256 48.5256 22.256H48.6656C48.7403 22.256 48.787 22.27 48.8056 22.298L51.3536 28.374C51.8296 29.494 52.189 30.292 52.4316 30.768C52.6743 31.2347 52.8703 31.538 53.0196 31.678C53.1783 31.8087 53.379 31.874 53.6216 31.874H53.7336C53.799 31.874 53.8316 31.8927 53.8316 31.93C53.8316 31.9767 53.8036 32 53.7476 32C53.5983 32 53.337 31.9953 52.9636 31.986C52.5996 31.9673 52.3896 31.958 52.3336 31.958C52.2776 31.958 52.0163 31.9673 51.5496 31.986C51.0923 31.9953 50.789 32 50.6396 32C50.5743 32 50.537 31.9767 50.5276 31.93C50.5463 31.902 50.5696 31.8833 50.5976 31.874H50.8916C51.153 31.874 51.293 31.7853 51.3116 31.608C51.3583 31.2813 51.013 30.2547 50.2756 28.528ZM50.2056 28.374L48.1196 23.488L46.1736 28.402L48.5536 28.388H50.2056V28.374ZM56.0718 23.642C55.3252 24.5287 54.9518 25.7 54.9518 27.156C54.9518 28.612 55.3065 29.7833 56.0158 30.67C56.7345 31.5567 57.7192 32 58.9698 32C61.1538 32 62.3718 30.754 62.6238 28.262H62.7358L62.5678 31.524C61.6438 31.9347 60.4538 32.14 58.9978 32.14C57.4858 32.14 56.2212 31.6687 55.2038 30.726C54.1958 29.774 53.6918 28.584 53.6918 27.156C53.6918 25.7187 54.2145 24.5287 55.2598 23.586C56.3145 22.634 57.5792 22.158 59.0538 22.158C59.6418 22.158 60.2718 22.2187 60.9438 22.34C61.6252 22.4613 62.1572 22.606 62.5398 22.774L62.7078 25.826H62.5818C62.3485 23.474 61.1818 22.298 59.0818 22.298C57.8312 22.298 56.8278 22.746 56.0718 23.642ZM66.0659 25.924V26.89H67.2279C68.0492 26.89 68.6092 26.7547 68.9079 26.484C69.2065 26.2133 69.3559 25.812 69.3559 25.28V24.986C69.3559 24.93 69.3792 24.902 69.4259 24.902C69.4725 24.902 69.4959 24.93 69.4959 24.986C69.4959 25.1353 69.4819 25.49 69.4539 26.05C69.4352 26.61 69.4259 26.918 69.4259 26.974C69.4259 27.0393 69.4352 27.3567 69.4539 27.926C69.4819 28.4953 69.4959 28.8173 69.4959 28.892C69.4959 28.948 69.4725 28.976 69.4259 28.976C69.3792 28.976 69.3559 28.948 69.3559 28.892V28.682C69.3559 28.15 69.2065 27.7487 68.9079 27.478C68.6092 27.198 68.0492 27.058 67.2279 27.058H66.0659V29.746C66.0659 30.8007 66.0285 31.4867 65.9539 31.804C66.0845 31.804 66.5185 31.8133 67.2559 31.832C68.0025 31.8413 68.4505 31.846 68.5999 31.846C69.3745 31.846 70.0372 31.566 70.5879 31.006C71.1385 30.4367 71.4605 29.774 71.5539 29.018L71.6379 28.276C71.6379 28.248 71.6519 28.2293 71.6799 28.22C71.7079 28.2107 71.7312 28.2153 71.7499 28.234C71.7779 28.2433 71.7919 28.262 71.7919 28.29L71.7079 29.046C71.5025 30.9033 71.3579 31.8693 71.2739 31.944C71.2365 31.9813 70.6159 32 69.4119 32L65.8699 31.958L63.8959 32C63.8399 32 63.8072 31.986 63.7979 31.958C63.8259 31.93 63.8585 31.9113 63.8959 31.902C64.1945 31.902 64.3999 31.8693 64.5119 31.804C64.6332 31.7293 64.7265 31.5707 64.7919 31.328C64.8572 31.076 64.9085 30.6467 64.9459 30.04C64.9832 29.5267 65.0019 28.1547 65.0019 25.924C65.0019 25.3267 64.9972 24.8413 64.9879 24.468C64.9879 24.0947 64.9739 23.768 64.9459 23.488C64.9179 23.208 64.8899 23.0027 64.8619 22.872C64.8339 22.7413 64.7779 22.6387 64.6939 22.564C64.6192 22.4893 64.5492 22.4473 64.4839 22.438C64.4279 22.4287 64.3299 22.424 64.1899 22.424H63.9379C63.8819 22.424 63.8539 22.4053 63.8539 22.368C63.8539 22.3213 63.8819 22.298 63.9379 22.298C64.0872 22.298 64.3672 22.3073 64.7779 22.326C65.1979 22.3353 65.4359 22.34 65.4919 22.34C65.5292 22.34 66.3085 22.3353 67.8299 22.326C69.3605 22.3073 70.2239 22.298 70.4199 22.298C70.7839 22.298 71.0032 22.3167 71.0779 22.354C71.1152 22.3727 71.2505 23.2313 71.4839 24.93L71.5399 25.434C71.5492 25.4807 71.5305 25.504 71.4839 25.504C71.4465 25.504 71.4185 25.4807 71.3999 25.434L71.3299 24.93C71.1992 24.146 70.8725 23.544 70.3499 23.124C69.8365 22.6947 69.1785 22.4753 68.3759 22.466H66.5979C66.3272 22.466 66.1685 22.5547 66.1219 22.732C66.0752 22.9 66.0565 23.5253 66.0659 24.608C66.0659 25.1493 66.0659 25.588 66.0659 25.924Z" fill="white"/>
</svg>
