<svg width="72" height="35" viewBox="0 0 72 35" fill="none" xmlns="http://www.w3.org/2000/svg">
<path d="M5.784 9.26L10.116 2.6H11.304V11H10.116L10.104 4.064L6.432 9.752L5.748 10.988L1.452 3.92V11H1.044V3.308L0.408 2.6H1.68L5.784 9.26ZM17.6436 2.48C18.8756 2.568 19.8636 3.068 20.6076 3.98C21.3516 4.892 21.6396 5.948 21.4716 7.148C21.3116 8.34 20.7436 9.324 19.7676 10.1C18.7916 10.876 17.6916 11.216 16.4676 11.12C15.2516 11.032 14.2676 10.532 13.5156 9.62C12.7636 8.716 12.4676 7.668 12.6276 6.476C12.7956 5.284 13.3676 4.296 14.3436 3.512C15.3196 2.728 16.4196 2.384 17.6436 2.48ZM19.0356 9.212C19.9956 8.452 20.6196 7.568 20.9076 6.56C21.2036 5.552 21.0756 4.716 20.5236 4.052C19.9556 3.396 19.1516 3.096 18.1116 3.152C17.0716 3.208 16.0396 3.588 15.0156 4.292C14.3596 4.74 13.8556 5.288 13.5036 5.936C13.1516 6.576 12.9876 7.212 13.0116 7.844C13.0356 8.468 13.2316 9.004 13.5996 9.452C14.1436 10.124 14.9476 10.44 16.0116 10.4C17.0756 10.36 18.0836 9.964 19.0356 9.212ZM29.742 4.736C29.742 5.28 29.502 5.76 29.022 6.176C28.55 6.592 27.962 6.804 27.258 6.812H25.722C25.778 7.276 25.946 7.672 26.226 8C26.506 8.32 26.862 8.528 27.294 8.624L27.954 8.768C28.746 8.944 29.318 9.22 29.67 9.596C30.03 9.972 30.214 10.44 30.222 11H29.97C29.834 10.736 29.522 10.552 29.034 10.448L28.074 10.232C27.418 10.088 26.774 9.684 26.142 9.02C25.518 8.348 25.162 7.596 25.074 6.764V6.524L26.73 6.512C27.378 6.512 27.818 6.408 28.05 6.2C28.282 5.984 28.398 5.508 28.398 4.772C28.398 4.06 28.234 3.58 27.906 3.332C27.586 3.084 27.098 2.96 26.442 2.96L23.874 2.972V11H22.65V2.6H26.742C27.654 2.6 28.382 2.804 28.926 3.212C29.47 3.612 29.742 4.12 29.742 4.736ZM38.2252 3.068H32.7772V6.464H37.7932V6.932H32.7772V10.532H38.2252V11H31.6252V2.6H38.2252V3.068Z" fill="black"/>
<path d="M51.6769 2.73678L52.222 2.17758C52.4527 1.94081 52.8259 1.94081 53.0542 2.17758L57.8269 7.07179C58.0577 7.30856 58.0577 7.69144 57.8269 7.92569L53.0542 12.8224C52.8235 13.0592 52.4503 13.0592 52.222 12.8224L51.6769 12.2632C51.4437 12.0239 51.4486 11.6335 51.6868 11.3992L54.6451 8.50756H47.5892C47.2627 8.50756 47 8.23804 47 7.90302V7.09698C47 6.76196 47.2627 6.49244 47.5892 6.49244H54.6451L51.6868 3.60076C51.4462 3.3665 51.4412 2.97607 51.6769 2.73678Z" fill="black"/>
</svg>
