<svg width="214" height="56" viewBox="0 0 214 56" fill="none" xmlns="http://www.w3.org/2000/svg">
<path d="M26.0128 3.17V4.17H27.0128V3.17H26.0128ZM18.0329 3.17V2.17H17.0329V3.17H18.0329ZM18.0329 23V24H19.0329V23H18.0329ZM15.1228 23H14.1228V24H15.1228V23ZM15.1228 3.17H16.1228V2.17H15.1228V3.17ZM7.17285 3.17H6.17285V4.17H7.17285V3.17ZM7.17285 2V0.999999H6.17285V2H7.17285ZM26.0128 2H27.0128V0.999999H26.0128V2ZM26.0128 2.17H18.0329V4.17H26.0128V2.17ZM17.0329 3.17V23H19.0329V3.17H17.0329ZM18.0329 22H15.1228V24H18.0329V22ZM16.1228 23V3.17H14.1228V23H16.1228ZM15.1228 2.17H7.17285V4.17H15.1228V2.17ZM8.17285 3.17V2H6.17285V3.17H8.17285ZM7.17285 3H26.0128V0.999999H7.17285V3ZM25.0128 2V3.17H27.0128V2H25.0128ZM47.4907 23V24H48.4907V23H47.4907ZM44.7607 23H43.7607V24H44.7607V23ZM44.7607 12.83H45.7607V11.83H44.7607V12.83ZM30.9907 12.83V11.83H29.9937L29.9908 12.827L30.9907 12.83ZM30.9607 23V24H31.9578L31.9607 23.003L30.9607 23ZM28.2607 23H27.2607V24H28.2607V23ZM28.2607 2V0.999999H27.2607V2H28.2607ZM30.9907 2H31.9907V0.999999H30.9907V2ZM30.9907 11.66H29.9907V12.66H30.9907V11.66ZM44.7607 11.66V12.66H45.7607V11.66H44.7607ZM44.7607 2V0.999999H43.7607V2H44.7607ZM47.4907 2H48.4907V0.999999H47.4907V2ZM47.4907 22H44.7607V24H47.4907V22ZM45.7607 23V12.83H43.7607V23H45.7607ZM44.7607 11.83H30.9907V13.83H44.7607V11.83ZM29.9908 12.827L29.9607 22.997L31.9607 23.003L31.9907 12.8329L29.9908 12.827ZM30.9607 22H28.2607V24H30.9607V22ZM29.2607 23V2H27.2607V23H29.2607ZM28.2607 3H30.9907V0.999999H28.2607V3ZM29.9907 2V11.66H31.9907V2H29.9907ZM30.9907 12.66H44.7607V10.66H30.9907V12.66ZM45.7607 11.66V2H43.7607V11.66H45.7607ZM44.7607 3H47.4907V0.999999H44.7607V3ZM46.4907 2V23H48.4907V2H46.4907ZM68.3412 3.17V4.17H69.3412V3.17H68.3412ZM54.7212 3.17V2.17H53.7212V3.17H54.7212ZM54.7212 11.66H53.7212V12.66H54.7212V11.66ZM67.2612 11.66H68.2612V10.66H67.2612V11.66ZM67.2612 12.83V13.83H68.2612V12.83H67.2612ZM54.7212 12.83V11.83H53.7212V12.83H54.7212ZM54.7212 21.83H53.7212V22.83H54.7212V21.83ZM68.3412 21.83H69.3412V20.83H68.3412V21.83ZM68.3412 23V24H69.3412V23H68.3412ZM51.8412 23H50.8412V24H51.8412V23ZM51.8412 2V0.999999H50.8412V2H51.8412ZM68.3412 2H69.3412V0.999999H68.3412V2ZM68.3412 2.17H54.7212V4.17H68.3412V2.17ZM53.7212 3.17V11.66H55.7212V3.17H53.7212ZM54.7212 12.66H67.2612V10.66H54.7212V12.66ZM66.2612 11.66V12.83H68.2612V11.66H66.2612ZM67.2612 11.83H54.7212V13.83H67.2612V11.83ZM53.7212 12.83V21.83H55.7212V12.83H53.7212ZM54.7212 22.83H68.3412V20.83H54.7212V22.83ZM67.3412 21.83V23H69.3412V21.83H67.3412ZM68.3412 22H51.8412V24H68.3412V22ZM52.8412 23V2H50.8412V23H52.8412ZM51.8412 3H68.3412V0.999999H51.8412V3ZM67.3412 2V3.17H69.3412V2H67.3412ZM97.3477 22.97L96.4765 23.4608L96.7633 23.97H97.3477V22.97ZM93.7477 16.58L94.6189 16.0892L94.3321 15.58H93.7477V16.58ZM80.7577 16.58V15.58H80.179L79.8907 16.0817L80.7577 16.58ZM77.0677 23V24H77.6463L77.9347 23.4983L77.0677 23ZM75.8377 23L74.9713 22.5007L74.1072 24H75.8377V23ZM86.9377 3.74L87.8041 4.23933L88.2132 3.52959L87.5978 2.98883L86.9377 3.74ZM84.9577 2V0.999999H82.3049L84.2976 2.75116L84.9577 2ZM88.7677 2L89.6319 1.49682L89.3426 0.999999H88.7677V2ZM100.978 22.97V23.97H102.717L101.842 22.4668L100.978 22.97ZM87.3277 5.24L88.1978 4.74711L87.3365 3.22661L86.4619 4.73956L87.3277 5.24ZM81.3277 15.62L80.4619 15.1196L79.5946 16.62H81.3277V15.62ZM93.2077 15.62V16.62H94.9235L94.0778 15.1271L93.2077 15.62ZM98.2189 22.4792L94.6189 16.0892L92.8764 17.0708L96.4765 23.4608L98.2189 22.4792ZM93.7477 15.58H80.7577V17.58H93.7477V15.58ZM79.8907 16.0817L76.2007 22.5017L77.9347 23.4983L81.6247 17.0783L79.8907 16.0817ZM77.0677 22H75.8377V24H77.0677V22ZM76.7041 23.4993L87.8041 4.23933L86.0713 3.24067L74.9713 22.5007L76.7041 23.4993ZM87.5978 2.98883L85.6178 1.24883L84.2976 2.75116L86.2776 4.49116L87.5978 2.98883ZM84.9577 3H88.7677V0.999999H84.9577V3ZM87.9035 2.50318L100.114 23.4732L101.842 22.4668L89.6319 1.49682L87.9035 2.50318ZM100.978 21.97H97.3477V23.97H100.978V21.97ZM86.4619 4.73956L80.4619 15.1196L82.1935 16.1204L88.1935 5.74044L86.4619 4.73956ZM81.3277 16.62H93.2077V14.62H81.3277V16.62ZM94.0778 15.1271L88.1978 4.74711L86.4576 5.73289L92.3376 16.1129L94.0778 15.1271ZM118.868 10.94L118.214 10.1843L118.207 10.1898L118.868 10.94ZM114.458 12.53V13.5301L114.47 13.5299L114.458 12.53ZM110.618 12.53V11.53H109.491L109.626 12.6498L110.618 12.53ZM111.878 15.5L111.118 16.1493L111.126 16.1585L111.878 15.5ZM114.548 17.06L114.332 18.0362L114.335 18.037L114.548 17.06ZM116.198 17.42L116.415 16.4438L116.412 16.443L116.198 17.42ZM120.488 19.49L119.758 20.1735L119.766 20.1816L120.488 19.49ZM121.868 23V24H122.883L122.868 22.9857L121.868 23ZM121.238 23L120.35 23.458L120.629 24H121.238V23ZM118.898 21.62L118.679 22.5957L118.69 22.598L118.898 21.62ZM116.498 21.08L116.718 20.1044L116.713 20.1033L116.498 21.08ZM111.668 18.05L110.936 18.7305L110.944 18.7394L111.668 18.05ZM108.998 12.41H107.998V12.4627L108.004 12.5152L108.998 12.41ZM108.998 11.81L108.991 10.81L107.998 10.8172V11.81H108.998ZM113.138 11.78V10.78L113.131 10.78L113.138 11.78ZM116.438 11L117.106 11.7446L117.113 11.7383L117.12 11.7319L116.438 11ZM116.078 3.83L115.466 4.62047L115.475 4.62766L116.078 3.83ZM112.418 2.9V1.89999L112.414 1.90001L112.418 2.9ZM105.998 2.93L105.994 1.93001L104.998 1.93466V2.93H105.998ZM105.998 23V24H106.998V23H105.998ZM102.938 23H101.938V24H102.938V23ZM102.938 2V0.999999H101.938V2H102.938ZM118.628 3.53L118.028 4.33003L118.036 4.33565L118.628 3.53ZM119.668 7.34C119.668 8.36026 119.235 9.29907 118.214 10.1843L119.523 11.6957C120.902 10.5009 121.668 9.03974 121.668 7.34H119.668ZM118.207 10.1898C117.229 11.0523 115.998 11.5124 114.447 11.5301L114.47 13.5299C116.439 13.5076 118.148 12.9077 119.53 11.6902L118.207 10.1898ZM114.458 11.53H110.618V13.53H114.458V11.53ZM109.626 12.6498C109.787 13.9882 110.279 15.1669 111.118 16.1493L112.639 14.8507C112.078 14.1931 111.73 13.3918 111.611 12.4102L109.626 12.6498ZM111.126 16.1585C111.972 17.1256 113.053 17.752 114.332 18.0362L114.765 16.0838C113.884 15.888 113.185 15.4744 112.631 14.8415L111.126 16.1585ZM114.335 18.037L115.985 18.397L116.412 16.443L114.762 16.083L114.335 18.037ZM115.982 18.3962C117.869 18.8157 119.074 19.4428 119.758 20.1734L121.219 18.8066C120.142 17.6572 118.488 16.9043 116.415 16.4438L115.982 18.3962ZM119.766 20.1816C120.477 20.9244 120.852 21.846 120.869 23.0143L122.868 22.9857C122.845 21.354 122.3 19.9356 121.211 18.7984L119.766 20.1816ZM121.868 22H121.238V24H121.868V22ZM122.127 22.542C121.58 21.4786 120.426 20.9231 119.107 20.642L118.69 22.598C119.811 22.8369 120.217 23.2014 120.35 23.458L122.127 22.542ZM119.118 20.6444L116.718 20.1044L116.279 22.0556L118.679 22.5956L119.118 20.6444ZM116.713 20.1033C115.327 19.799 113.884 18.9274 112.393 17.3606L110.944 18.7394C112.613 20.4926 114.39 21.641 116.284 22.0567L116.713 20.1033ZM112.401 17.3695C110.973 15.8319 110.188 14.149 109.993 12.3048L108.004 12.5152C108.249 14.831 109.243 16.9081 110.936 18.7305L112.401 17.3695ZM109.998 12.41V11.81H107.998V12.41H109.998ZM109.006 12.81L113.146 12.78L113.131 10.78L108.991 10.81L109.006 12.81ZM113.138 12.78C113.996 12.78 114.758 12.7118 115.409 12.5582C116.053 12.4059 116.648 12.1552 117.106 11.7446L115.771 10.2554C115.649 10.3648 115.404 10.5041 114.948 10.6118C114.499 10.7182 113.901 10.78 113.138 10.78V12.78ZM117.12 11.7319C117.611 11.2745 117.895 10.6282 118.063 9.93927C118.233 9.23847 118.308 8.39416 118.308 7.43H116.308C116.308 8.30583 116.239 8.97652 116.119 9.46573C115.997 9.9668 115.846 10.1855 115.757 10.2681L117.12 11.7319ZM118.308 7.43C118.308 5.55954 117.888 3.94417 116.682 3.03234L115.475 4.62766C115.909 4.95583 116.308 5.74046 116.308 7.43H118.308ZM116.691 3.03958C115.636 2.22227 114.153 1.9 112.418 1.9V3.9C113.964 3.9 114.921 4.19773 115.466 4.62041L116.691 3.03958ZM112.414 1.90001L105.994 1.93001L106.003 3.92999L112.423 3.89999L112.414 1.90001ZM104.998 2.93V23H106.998V2.93H104.998ZM105.998 22H102.938V24H105.998V22ZM103.938 23V2H101.938V23H103.938ZM102.938 3H113.168V0.999999H102.938V3ZM113.168 3C115.305 3 116.892 3.47776 118.028 4.33L119.228 2.73C117.645 1.54224 115.592 0.999999 113.168 0.999999V3ZM118.036 4.33565C119.168 5.16822 119.668 6.15197 119.668 7.34H121.668C121.668 5.44803 120.809 3.89178 119.221 2.72435L118.036 4.33565ZM140.944 3.17V4.17H141.944V3.17H140.944ZM132.964 3.17V2.17H131.964V3.17H132.964ZM132.964 23V24H133.964V23H132.964ZM130.055 23H129.055V24H130.055V23ZM130.055 3.17H131.055V2.17H130.055V3.17ZM122.104 3.17H121.104V4.17H122.104V3.17ZM122.104 2V0.999999H121.104V2H122.104ZM140.944 2H141.944V0.999999H140.944V2ZM140.944 2.17H132.964V4.17H140.944V2.17ZM131.964 3.17V23H133.964V3.17H131.964ZM132.964 22H130.055V24H132.964V22ZM131.055 23V3.17H129.055V23H131.055ZM130.055 2.17H122.104V4.17H130.055V2.17ZM123.104 3.17V2H121.104V3.17H123.104ZM122.104 3H140.944V0.999999H122.104V3ZM139.944 2V3.17H141.944V2H139.944ZM143.942 2V0.999999H142.942V2H143.942ZM146.492 2H147.492V0.999999H146.492V2ZM146.492 23V24H147.492V23H146.492ZM143.942 23H142.942V24H143.942V23ZM143.942 3H146.492V0.999999H143.942V3ZM145.492 2V23H147.492V2H145.492ZM146.492 22H143.942V24H146.492V22ZM144.942 23V2H142.942V23H144.942ZM150.269 7.04L151.267 7.10652L150.269 7.04ZM153.029 3.05L153.584 3.88208L153.59 3.87763L153.029 3.05ZM158.909 1.43L158.956 0.431091L158.955 0.431049L158.909 1.43ZM166.319 3.47H167.319V2.9854L166.939 2.68512L166.319 3.47ZM166.319 8.66L165.366 8.96449L167.319 8.66H166.319ZM163.439 3.56L162.78 4.31258L162.787 4.31881L162.795 4.32491L163.439 3.56ZM158.519 2L158.484 2.99941L158.491 2.99961L158.519 2ZM153.359 3.59L154.059 4.30356L154.06 4.30323L153.359 3.59ZM152.789 7.31L151.9 7.76735L151.9 7.76754L152.789 7.31ZM160.889 12.5L161.205 11.5513L161.196 11.5483L160.889 12.5ZM162.179 12.98L161.8 13.9055L161.819 13.913L161.837 13.9198L162.179 12.98ZM163.829 13.76L163.35 14.6379L163.36 14.6436L163.371 14.649L163.829 13.76ZM165.599 14.87L164.989 15.6626L164.999 15.6701L165.009 15.6774L165.599 14.87ZM167.039 16.34L166.232 16.9314V16.9314L167.039 16.34ZM167.939 18.23L166.967 18.4656L166.969 18.4725L167.939 18.23ZM167.849 20.51L166.879 20.2675L166.877 20.2755L166.875 20.2835L167.849 20.51ZM166.589 23.21L165.589 23.2412L165.685 26.3139L167.415 23.7728L166.589 23.21ZM166.409 21.47L165.427 21.6588L166.409 21.47ZM165.929 20.03L165.034 20.4772V20.4772L165.929 20.03ZM165.239 18.89L164.399 19.4333L164.418 19.4623L164.439 19.49L165.239 18.89ZM164.279 17.9L163.654 18.6809L163.663 18.6883L163.673 18.6954L164.279 17.9ZM163.139 17.09L162.596 17.9296L162.606 17.9366L162.617 17.9433L163.139 17.09ZM161.729 16.34L162.152 15.4338L161.729 16.34ZM160.139 15.65L159.774 16.5812L160.139 15.65ZM158.309 14.93L157.937 15.8585L157.942 15.8602L158.309 14.93ZM157.829 14.75L157.457 15.6785L157.485 15.6894L157.513 15.6987L157.829 14.75ZM157.409 14.6L157.003 15.5138L157.047 15.5334L157.093 15.5487L157.409 14.6ZM156.929 14.39L157.323 13.4709L157.307 13.4642L157.292 13.4582L156.929 14.39ZM151.799 11.42L151.098 12.1333L151.104 12.1395L151.111 12.1456L151.799 11.42ZM152.219 21.86H151.219V22.404L151.676 22.6996L152.219 21.86ZM152.219 17L153.189 16.7575L151.219 17H152.219ZM154.589 21.65H155.589V21.2562L155.32 20.9681L154.589 21.65ZM154.589 22.94L154.292 23.8949L155.589 24.2984V22.94H154.589ZM151.267 7.10652C151.339 6.0262 151.995 4.94131 153.584 3.88205L152.474 2.21795C150.583 3.47868 149.399 5.0538 149.271 6.97348L151.267 7.10652ZM153.59 3.87763C155.144 2.82358 156.89 2.33843 158.863 2.42895L158.955 0.431049C156.568 0.321565 154.393 0.916416 152.468 2.22237L153.59 3.87763ZM158.862 2.42891C162.215 2.58576 164.427 3.25066 165.699 4.25488L166.939 2.68512C165.171 1.28934 162.443 0.59424 158.956 0.431091L158.862 2.42891ZM165.319 3.47V8.66H167.319V3.47H165.319ZM167.271 8.35551C166.47 5.84979 165.437 3.93543 164.083 2.79509L162.795 4.32491C163.721 5.10457 164.607 6.59021 165.366 8.96449L167.271 8.35551ZM164.097 2.80742C162.738 1.61811 160.837 1.064 158.547 1.00038L158.491 2.99961C160.521 3.056 161.9 3.54189 162.78 4.31258L164.097 2.80742ZM158.554 1.00061C156.113 0.914955 154.082 1.47749 152.658 2.87677L154.06 4.30323C154.956 3.42251 156.365 2.92504 158.484 2.99938L158.554 1.00061ZM152.658 2.87644C151.99 3.53244 151.538 4.29999 151.403 5.17854C151.269 6.05474 151.468 6.92817 151.9 7.76735L153.678 6.85265C153.39 6.29183 153.324 5.84526 153.38 5.48146C153.435 5.12 153.628 4.72756 154.059 4.30356L152.658 2.87644ZM151.9 7.76754C153.155 10.2063 156.203 12.0392 160.582 13.4517L161.196 11.5483C156.895 10.1608 154.543 8.5337 153.678 6.85246L151.9 7.76754ZM160.573 13.4487C160.97 13.5812 161.379 13.7333 161.8 13.9055L162.557 12.0545C162.098 11.8667 161.648 11.6988 161.205 11.5513L160.573 13.4487ZM161.837 13.9198C162.21 14.0556 162.711 14.2894 163.35 14.6379L164.308 12.8821C163.627 12.5106 163.027 12.2244 162.521 12.0402L161.837 13.9198ZM163.371 14.649C163.984 14.965 164.522 15.3036 164.989 15.6626L166.209 14.0774C165.635 13.6364 164.993 13.235 164.287 12.871L163.371 14.649ZM165.009 15.6774C165.434 15.9883 165.844 16.4015 166.232 16.9314L167.845 15.7486C167.354 15.0785 166.803 14.5117 166.189 14.0626L165.009 15.6774ZM166.232 16.9314C166.602 17.4351 166.841 17.9457 166.967 18.4656L168.911 17.9944C168.717 17.1943 168.356 16.4449 167.845 15.7486L166.232 16.9314ZM166.969 18.4725C167.077 18.9049 167.073 19.49 166.879 20.2675L168.819 20.7525C169.065 19.77 169.121 18.8351 168.909 17.9875L166.969 18.4725ZM166.875 20.2835C166.71 20.9942 166.352 21.7812 165.762 22.6472L167.415 23.7728C168.106 22.7588 168.588 21.7458 168.823 20.7365L166.875 20.2835ZM167.588 23.1788C167.567 22.4964 167.503 21.8626 167.391 21.2812L165.427 21.6588C165.515 22.1174 165.571 22.6436 165.589 23.2412L167.588 23.1788ZM167.391 21.2812C167.275 20.6783 167.087 20.1105 166.823 19.5828L165.034 20.4772C165.211 20.8295 165.343 21.2217 165.427 21.6588L167.391 21.2812ZM166.823 19.5828C166.582 19.1008 166.322 18.6674 166.039 18.29L164.439 19.49C164.636 19.7526 164.835 20.0792 165.034 20.4772L166.823 19.5828ZM166.078 18.3468C165.78 17.8854 165.37 17.4744 164.885 17.1046L163.673 18.6954C164.027 18.9656 164.258 19.2146 164.399 19.4333L166.078 18.3468ZM164.904 17.1191C164.477 16.7782 164.063 16.4827 163.66 16.2367L162.617 17.9433C162.935 18.1373 163.28 18.3818 163.654 18.6809L164.904 17.1191ZM163.682 16.2504C163.287 15.9949 162.771 15.7227 162.152 15.4338L161.306 17.2462C161.887 17.5173 162.311 17.7451 162.596 17.9296L163.682 16.2504ZM162.152 15.4338C161.539 15.1476 160.988 14.9086 160.503 14.7188L159.774 16.5812C160.209 16.7514 160.719 16.9724 161.306 17.2462L162.152 15.4338ZM160.503 14.7188C160.045 14.5393 159.436 14.2997 158.676 13.9998L157.942 15.8602C158.702 16.1603 159.313 16.4007 159.774 16.5812L160.503 14.7188ZM158.68 14.0015C158.473 13.9185 158.292 13.8503 158.145 13.8013L157.513 15.6987C157.606 15.7297 157.745 15.7815 157.937 15.8585L158.68 14.0015ZM158.2 13.8215C158.073 13.7708 157.912 13.7136 157.725 13.6513L157.093 15.5487C157.266 15.6064 157.384 15.6492 157.457 15.6785L158.2 13.8215ZM157.815 13.6862C157.632 13.6049 157.468 13.533 157.323 13.4709L156.535 15.3091C156.67 15.367 156.826 15.4351 157.003 15.5138L157.815 13.6862ZM157.292 13.4582C155.096 12.6033 153.517 11.6714 152.487 10.6944L151.111 12.1456C152.4 13.3686 154.242 14.4167 156.566 15.3218L157.292 13.4582ZM152.5 10.7067C151.596 9.81861 151.163 8.6576 151.267 7.10652L149.271 6.97348C149.134 9.0224 149.722 10.7814 151.098 12.1333L152.5 10.7067ZM153.219 21.86V17H151.219V21.86H153.219ZM151.249 17.2425C151.761 19.2899 152.618 21.0029 153.857 22.3319L155.32 20.9681C154.359 19.9371 153.637 18.5501 153.189 16.7575L151.249 17.2425ZM153.589 21.65V22.94H155.589V21.65H153.589ZM154.886 21.9851C154.059 21.7279 153.354 21.4037 152.762 21.0204L151.676 22.6996C152.443 23.1963 153.319 23.5921 154.292 23.8949L154.886 21.9851ZM180.041 3.11L180.056 2.1101L179.041 2.09545V3.11H180.041ZM180.041 23V24H181.041V23H180.041ZM177.131 23H176.131V24H177.131V23ZM177.131 3.08H178.131V2.08H177.131V3.08ZM169.331 5.09L168.726 4.29384L168.718 4.29982L168.711 4.30595L169.331 5.09ZM168.071 6.23L167.119 5.92596L168.797 6.91774L168.071 6.23ZM169.421 2V0.999999H168.691L168.469 1.69596L169.421 2ZM188.351 2H189.351V0.999999H188.351V2ZM188.351 3.23L188.337 4.22989L189.351 4.24454V3.23H188.351ZM179.041 3.11V23H181.041V3.11H179.041ZM180.041 22H177.131V24H180.041V22ZM178.131 23V3.08H176.131V23H178.131ZM177.131 2.08H175.511V4.08H177.131V2.08ZM175.511 2.08C174.121 2.08 172.773 2.34558 171.474 2.8737L172.228 4.72629C173.29 4.29442 174.382 4.08 175.511 4.08V2.08ZM171.474 2.8737C170.279 3.3602 169.336 3.83022 168.726 4.29384L169.936 5.88616C170.326 5.58977 171.064 5.1998 172.228 4.72629L171.474 2.8737ZM168.711 4.30595C168.199 4.71069 167.743 5.12248 167.345 5.54225L168.797 6.91774C169.12 6.57752 169.503 6.22931 169.952 5.87405L168.711 4.30595ZM169.024 6.53404L170.374 2.30404L168.469 1.69596L167.119 5.92596L169.024 6.53404ZM169.421 3H188.351V0.999999H169.421V3ZM187.351 2V3.23H189.351V2H187.351ZM188.366 2.2301L180.056 2.1101L180.027 4.10989L188.337 4.22989L188.366 2.2301ZM188.824 7.04L189.821 7.10652L188.824 7.04ZM191.584 3.05L192.138 3.88208L192.145 3.87763L191.584 3.05ZM197.464 1.43L197.51 0.431091L197.509 0.431049L197.464 1.43ZM204.874 3.47H205.874V2.9854L205.493 2.68512L204.874 3.47ZM204.874 8.66L203.921 8.96449L205.874 8.66H204.874ZM201.994 3.56L201.335 4.31258L201.342 4.31881L201.349 4.32491L201.994 3.56ZM197.074 2L197.038 2.99941L197.046 2.99961L197.074 2ZM191.914 3.59L192.614 4.30356L192.615 4.30323L191.914 3.59ZM191.344 7.31L190.454 7.76735L190.454 7.76754L191.344 7.31ZM199.444 12.5L199.76 11.5513L199.751 11.5483L199.444 12.5ZM200.734 12.98L200.355 13.9055L200.373 13.913L200.392 13.9198L200.734 12.98ZM202.384 13.76L201.905 14.6379L201.915 14.6436L201.926 14.649L202.384 13.76ZM204.154 14.87L203.544 15.6626L203.554 15.6701L203.564 15.6774L204.154 14.87ZM205.594 16.34L204.787 16.9314V16.9314L205.594 16.34ZM206.494 18.23L205.522 18.4656L205.523 18.4725L206.494 18.23ZM206.404 20.51L205.433 20.2675L205.431 20.2755L205.43 20.2835L206.404 20.51ZM205.144 23.21L204.144 23.2412L204.24 26.3139L205.97 23.7728L205.144 23.21ZM204.964 21.47L203.982 21.6588L204.964 21.47ZM204.484 20.03L203.589 20.4772V20.4772L204.484 20.03ZM203.794 18.89L202.954 19.4333L202.973 19.4623L202.994 19.49L203.794 18.89ZM202.834 17.9L202.209 18.6809L202.218 18.6883L202.228 18.6954L202.834 17.9ZM201.694 17.09L201.15 17.9296L201.161 17.9366L201.172 17.9433L201.694 17.09ZM200.284 16.34L200.706 15.4338L200.284 16.34ZM198.694 15.65L198.329 16.5812L198.694 15.65ZM196.864 14.93L196.492 15.8585L196.496 15.8602L196.864 14.93ZM196.384 14.75L196.012 15.6785L196.039 15.6894L196.067 15.6987L196.384 14.75ZM195.964 14.6L195.557 15.5138L195.602 15.5334L195.647 15.5487L195.964 14.6ZM195.484 14.39L195.877 13.4709L195.862 13.4642L195.846 13.4582L195.484 14.39ZM190.354 11.42L189.653 12.1333L189.659 12.1395L189.665 12.1456L190.354 11.42ZM190.774 21.86H189.774V22.404L190.23 22.6996L190.774 21.86ZM190.774 17L191.744 16.7575L189.774 17H190.774ZM193.144 21.65H194.144V21.2562L193.875 20.9681L193.144 21.65ZM193.144 22.94L192.846 23.8949L194.144 24.2984V22.94H193.144ZM189.821 7.10652C189.893 6.0262 190.549 4.94131 192.138 3.88205L191.029 2.21795C189.138 3.47868 187.954 5.0538 187.826 6.97348L189.821 7.10652ZM192.145 3.87763C193.699 2.82358 195.444 2.33843 197.418 2.42895L197.509 0.431049C195.123 0.321565 192.948 0.916416 191.022 2.22237L192.145 3.87763ZM197.417 2.42891C200.77 2.58576 202.982 3.25066 204.254 4.25488L205.493 2.68512C203.725 1.28934 200.998 0.59424 197.51 0.431091L197.417 2.42891ZM203.874 3.47V8.66H205.874V3.47H203.874ZM205.826 8.35551C205.025 5.84979 203.992 3.93543 202.638 2.79509L201.349 4.32491C202.275 5.10457 203.162 6.59021 203.921 8.96449L205.826 8.35551ZM202.652 2.80742C201.293 1.61811 199.391 1.064 197.101 1.00038L197.046 2.99961C199.076 3.056 200.454 3.54189 201.335 4.31258L202.652 2.80742ZM197.109 1.00061C194.667 0.914955 192.636 1.47749 191.213 2.87677L192.615 4.30323C193.511 3.42251 194.92 2.92504 197.038 2.99938L197.109 1.00061ZM191.213 2.87644C190.545 3.53244 190.092 4.29999 189.958 5.17854C189.823 6.05474 190.023 6.92817 190.454 7.76735L192.233 6.85265C191.944 6.29183 191.879 5.84526 191.935 5.48146C191.99 5.12 192.182 4.72756 192.614 4.30356L191.213 2.87644ZM190.454 7.76754C191.709 10.2063 194.758 12.0392 199.137 13.4517L199.751 11.5483C195.449 10.1608 193.098 8.5337 192.233 6.85246L190.454 7.76754ZM199.127 13.4487C199.525 13.5812 199.934 13.7333 200.355 13.9055L201.112 12.0545C200.653 11.8667 200.202 11.6988 199.76 11.5513L199.127 13.4487ZM200.392 13.9198C200.765 14.0556 201.266 14.2894 201.905 14.6379L202.862 12.8821C202.181 12.5106 201.582 12.2244 201.075 12.0402L200.392 13.9198ZM201.926 14.649C202.539 14.965 203.077 15.3036 203.544 15.6626L204.763 14.0774C204.19 13.6364 203.548 13.235 202.842 12.871L201.926 14.649ZM203.564 15.6774C203.989 15.9883 204.399 16.4015 204.787 16.9314L206.4 15.7486C205.909 15.0785 205.358 14.5117 204.744 14.0626L203.564 15.6774ZM204.787 16.9314C205.157 17.4351 205.396 17.9457 205.522 18.4656L207.465 17.9944C207.271 17.1943 206.911 16.4449 206.4 15.7486L204.787 16.9314ZM205.523 18.4725C205.632 18.9049 205.628 19.49 205.433 20.2675L207.374 20.7525C207.619 19.77 207.676 18.8351 207.464 17.9875L205.523 18.4725ZM205.43 20.2835C205.264 20.9942 204.907 21.7812 204.317 22.6472L205.97 23.7728C206.661 22.7588 207.143 21.7458 207.378 20.7365L205.43 20.2835ZM206.143 23.1788C206.122 22.4964 206.057 21.8626 205.946 21.2812L203.982 21.6588C204.07 22.1174 204.125 22.6436 204.144 23.2412L206.143 23.1788ZM205.946 21.2812C205.83 20.6783 205.642 20.1105 205.378 19.5828L203.589 20.4772C203.765 20.8295 203.897 21.2217 203.982 21.6588L205.946 21.2812ZM205.378 19.5828C205.137 19.1008 204.877 18.6674 204.594 18.29L202.994 19.49C203.19 19.7526 203.39 20.0792 203.589 20.4772L205.378 19.5828ZM204.633 18.3468C204.335 17.8854 203.925 17.4744 203.44 17.1046L202.228 18.6954C202.582 18.9656 202.812 19.2146 202.954 19.4333L204.633 18.3468ZM203.458 17.1191C203.032 16.7782 202.618 16.4827 202.215 16.2367L201.172 17.9433C201.49 18.1373 201.835 18.3818 202.209 18.6809L203.458 17.1191ZM202.237 16.2504C201.842 15.9949 201.326 15.7227 200.706 15.4338L199.861 17.2462C200.442 17.5173 200.865 17.7451 201.15 17.9296L202.237 16.2504ZM200.706 15.4338C200.093 15.1476 199.543 14.9086 199.058 14.7188L198.329 16.5812C198.764 16.7514 199.274 16.9724 199.861 17.2462L200.706 15.4338ZM199.058 14.7188C198.599 14.5393 197.99 14.2997 197.231 13.9998L196.496 15.8602C197.257 16.1603 197.868 16.4007 198.329 16.5812L199.058 14.7188ZM197.235 14.0015C197.027 13.9185 196.847 13.8503 196.7 13.8013L196.067 15.6987C196.16 15.7297 196.3 15.7815 196.492 15.8585L197.235 14.0015ZM196.755 13.8215C196.628 13.7708 196.467 13.7136 196.28 13.6513L195.647 15.5487C195.82 15.6064 195.939 15.6492 196.012 15.6785L196.755 13.8215ZM196.37 13.6862C196.187 13.6049 196.023 13.533 195.877 13.4709L195.09 15.3091C195.225 15.367 195.38 15.4351 195.557 15.5138L196.37 13.6862ZM195.846 13.4582C193.651 12.6033 192.072 11.6714 191.042 10.6944L189.665 12.1456C190.955 13.3686 192.796 14.4167 195.121 15.3218L195.846 13.4582ZM191.054 10.7067C190.15 9.81861 189.718 8.6576 189.821 7.10652L187.826 6.97348C187.689 9.0224 188.277 10.7814 189.653 12.1333L191.054 10.7067ZM191.774 21.86V17H189.774V21.86H191.774ZM189.803 17.2425C190.315 19.2899 191.173 21.0029 192.412 22.3319L193.875 20.9681C192.914 19.9371 192.192 18.5501 191.744 16.7575L189.803 17.2425ZM192.144 21.65V22.94H194.144V21.65H192.144ZM193.441 21.9851C192.614 21.7279 191.909 21.4037 191.317 21.0204L190.23 22.6996C190.998 23.1963 191.873 23.5921 192.846 23.8949L193.441 21.9851Z" fill="black"/>
<path d="M18.9303 35.831H11.2163V55H8.40326V35.831H0.718262V34.7H18.9303V35.831ZM39.6922 55H37.0532V45.169H23.7422L23.7132 55H21.1032V34.7H23.7422V44.038H37.0532V34.7H39.6922V55ZM59.8477 35.831H46.6817V44.038H58.8037V45.169H46.6817V53.869H59.8477V55H43.8977V34.7H59.8477V35.831ZM87.8873 54.971L84.4073 48.794H71.8503L68.2833 55H67.0943L77.8243 36.382L75.9103 34.7H79.5933L91.3963 54.971H87.8873ZM78.2013 37.832L72.4013 47.866H83.8853L78.2013 37.832ZM110.431 39.862C110.431 41.1767 109.851 42.3367 108.691 43.342C107.55 44.3473 106.129 44.8597 104.428 44.879H100.716C100.851 46.0003 101.257 46.9573 101.934 47.75C102.61 48.5233 103.471 49.026 104.515 49.258L106.11 49.606C108.024 50.0313 109.406 50.6983 110.257 51.607C111.127 52.5157 111.571 53.6467 111.591 55H110.982C110.653 54.362 109.899 53.9173 108.72 53.666L106.4 53.144C104.814 52.796 103.258 51.8197 101.731 50.215C100.223 48.591 99.3624 46.7737 99.1497 44.763V44.183L103.152 44.154C104.718 44.154 105.781 43.9027 106.342 43.4C106.902 42.878 107.183 41.7277 107.183 39.949C107.183 38.2283 106.786 37.0683 105.994 36.469C105.22 35.8697 104.041 35.57 102.456 35.57L96.2497 35.599V55H93.2917V34.7H103.181C105.385 34.7 107.144 35.193 108.459 36.179C109.773 37.1457 110.431 38.3733 110.431 39.862ZM130.031 35.831H122.317V55H119.504V35.831H111.819V34.7H130.031V35.831ZM141.6 35.773V55H138.787V35.744H137.221C136.003 35.744 134.823 35.976 133.683 36.44C132.542 36.904 131.73 37.3197 131.247 37.687C130.783 38.0543 130.377 38.4217 130.029 38.789L131.334 34.7H149.633V35.889L141.6 35.773ZM152.526 34.7H154.991V55H152.526V34.7ZM158.642 39.572C158.739 38.122 159.628 36.8363 161.31 35.715C162.992 34.5743 164.887 34.0523 166.994 34.149C170.3 34.3037 172.688 34.961 174.157 36.121V41.138C173.403 38.7793 172.475 37.136 171.373 36.208C170.29 35.2607 168.705 34.758 166.617 34.7C164.413 34.6227 162.75 35.135 161.629 36.237C160.566 37.281 160.382 38.4797 161.078 39.833C162.103 41.8243 164.713 43.4967 168.908 44.85C169.314 44.9853 169.73 45.14 170.155 45.314C170.58 45.4687 171.112 45.72 171.75 46.068C172.388 46.3967 172.958 46.7543 173.461 47.141C173.964 47.5083 174.428 47.982 174.853 48.562C175.278 49.142 175.568 49.751 175.723 50.389C175.878 51.0077 175.849 51.7423 175.636 52.593C175.443 53.4243 175.037 54.2943 174.418 55.203C174.399 54.5843 174.341 54.0237 174.244 53.521C174.147 53.0183 173.993 52.5543 173.78 52.129C173.567 51.7037 173.345 51.3363 173.113 51.027C172.9 50.6983 172.591 50.3793 172.185 50.07C171.798 49.7607 171.431 49.4997 171.083 49.287C170.754 49.0743 170.3 48.8327 169.72 48.562C169.14 48.2913 168.628 48.069 168.183 47.895C167.738 47.721 167.149 47.489 166.414 47.199C166.221 47.1217 166.066 47.0637 165.95 47.025C165.853 46.9863 165.718 46.938 165.544 46.88C165.37 46.8027 165.215 46.735 165.08 46.677C162.895 45.8263 161.242 44.8693 160.121 43.806C159.019 42.7233 158.526 41.312 158.642 39.572ZM160.527 53.898V49.2C160.991 51.056 161.755 52.5543 162.818 53.695V54.942C161.948 54.6713 161.184 54.3233 160.527 53.898ZM187.422 35.773V55H184.609V35.744H183.043C181.825 35.744 180.646 35.976 179.505 36.44C178.364 36.904 177.552 37.3197 177.069 37.687C176.605 38.0543 176.199 38.4217 175.851 38.789L177.156 34.7H195.455V35.889L187.422 35.773ZM195.912 39.572C196.008 38.122 196.898 36.8363 198.58 35.715C200.262 34.5743 202.156 34.0523 204.264 34.149C207.57 34.3037 209.957 34.961 211.427 36.121V41.138C210.673 38.7793 209.745 37.136 208.643 36.208C207.56 35.2607 205.975 34.758 203.887 34.7C201.683 34.6227 200.02 35.135 198.899 36.237C197.835 37.281 197.652 38.4797 198.348 39.833C199.372 41.8243 201.982 43.4967 206.178 44.85C206.584 44.9853 206.999 45.14 207.425 45.314C207.85 45.4687 208.382 45.72 209.02 46.068C209.658 46.3967 210.228 46.7543 210.731 47.141C211.233 47.5083 211.697 47.982 212.123 48.562C212.548 49.142 212.838 49.751 212.993 50.389C213.147 51.0077 213.118 51.7423 212.906 52.593C212.712 53.4243 212.306 54.2943 211.688 55.203C211.668 54.5843 211.61 54.0237 211.514 53.521C211.417 53.0183 211.262 52.5543 211.05 52.129C210.837 51.7037 210.615 51.3363 210.383 51.027C210.17 50.6983 209.861 50.3793 209.455 50.07C209.068 49.7607 208.701 49.4997 208.353 49.287C208.024 49.0743 207.57 48.8327 206.99 48.562C206.41 48.2913 205.897 48.069 205.453 47.895C205.008 47.721 204.418 47.489 203.684 47.199C203.49 47.1217 203.336 47.0637 203.22 47.025C203.123 46.9863 202.988 46.938 202.814 46.88C202.64 46.8027 202.485 46.735 202.35 46.677C200.165 45.8263 198.512 44.8693 197.391 43.806C196.289 42.7233 195.796 41.312 195.912 39.572ZM197.797 53.898V49.2C198.261 51.056 199.024 52.5543 200.088 53.695V54.942C199.218 54.6713 198.454 54.3233 197.797 53.898Z" fill="black"/>
</svg>
